<svg width="60" height="60" viewBox="0 0 60 60" fill="none" xmlns="http://www.w3.org/2000/svg">
<circle cx="30" cy="30" r="30" fill="#F9F9F9"/>
<circle cx="30" cy="30" r="15" fill="#FEE227"/>
<path d="M30.5 2L36.9952 13.25H24.0048L30.5 2Z" fill="#FEE227"/>
<path d="M20.9534 45.4178L14.8296 39.2941L12.5882 47.6593L20.9534 45.4178Z" fill="#FEE227"/>
<path d="M39.2941 45.4178L45.4178 39.2941L47.6593 47.6593L39.2941 45.4178Z" fill="#FEE227"/>
<path d="M20.886 13.8296L14.7999 19.9534L12.5723 11.5882L20.886 13.8296Z" fill="#FEE227"/>
<path d="M39.1139 13.8296L45.2 19.9534L47.4277 11.5882L39.1139 13.8296Z" fill="#FEE227"/>
<path d="M13.9952 23.75L2.7452 30.2452L13.9952 36.7404L13.9952 23.75Z" fill="#FEE227"/>
<path d="M46.4952 23.75L57.7452 30.2452L46.4952 36.7404L46.4952 23.75Z" fill="#FEE227"/>
<path d="M30.5 58L24.0048 46.75H36.9952L30.5 58Z" fill="#FEE227"/>
</svg>
